<svg xmlns="http://www.w3.org/2000/svg" width="1440" height="900"><path d="M885,639L983,988L1151,904Z" fill="#4daccd" stroke="#4daccd" stroke-width="1.51"/><path d="M1151,904L1265,740L885,639Z" fill="#4bafd1" stroke="#4bafd1" stroke-width="1.51"/><path d="M1265,740L1190,358L885,639Z" fill="#5bb7ce" stroke="#5bb7ce" stroke-width="1.51"/><path d="M885,639L565,1063L983,988Z" fill="#59afc7" stroke="#59afc7" stroke-width="1.51"/><path d="M983,988L1276,1336L1151,904Z" fill="#3896c4" stroke="#3896c4" stroke-width="1.51"/><path d="M565,1063L819,1310L983,988Z" fill="#52a0be" stroke="#52a0be" stroke-width="1.51"/><path d="M885,639L462,565L565,1063Z" fill="#6cbfc9" stroke="#6cbfc9" stroke-width="1.51"/><path d="M786,198L462,565L885,639Z" fill="#7bcbc5" stroke="#7bcbc5" stroke-width="1.51"/><path d="M1151,904L1588,945L1265,740Z" fill="#3a9ac6" stroke="#3a9ac6" stroke-width="1.51"/><path d="M819,1310L1276,1336L983,988Z" fill="#3c92c0" stroke="#3c92c0" stroke-width="1.51"/><path d="M1265,740L1608,668L1190,358Z" fill="#51aac8" stroke="#51aac8" stroke-width="1.51"/><path d="M1276,1336L1588,945L1151,904Z" fill="#2e8cbf" stroke="#2e8cbf" stroke-width="1.51"/><path d="M1588,945L1608,668L1265,740Z" fill="#3998c5" stroke="#3998c5" stroke-width="1.51"/><path d="M1190,358L786,198L885,639Z" fill="#74c5c8" stroke="#74c5c8" stroke-width="1.51"/><path d="M786,198L533,233L462,565Z" fill="#8ed2bf" stroke="#8ed2bf" stroke-width="1.51"/><path d="M565,1063L463,1449L819,1310Z" fill="#5b9ab6" stroke="#5b9ab6" stroke-width="1.51"/><path d="M819,1310L463,1449L1276,1336Z" fill="#488cb3" stroke="#488cb3" stroke-width="1.51"/><path d="M180,1287L463,1449L565,1063Z" fill="#6c9fb2" stroke="#6c9fb2" stroke-width="1.51"/><path d="M1190,358L868,-200L786,198Z" fill="#8dcec4" stroke="#8dcec4" stroke-width="1.51"/><path d="M1608,668L1697,303L1190,358Z" fill="#5aa8c0" stroke="#5aa8c0" stroke-width="1.51"/><path d="M1921,255L1697,303L2048,587Z" fill="#5a95b1" stroke="#5a95b1" stroke-width="1.51"/><path d="M76,690L97,926L462,565Z" fill="#8acac8" stroke="#8acac8" stroke-width="1.51"/><path d="M462,565L97,926L565,1063Z" fill="#7bbdc0" stroke="#7bbdc0" stroke-width="1.51"/><path d="M154,232L76,690L462,565Z" fill="#97d5c1" stroke="#97d5c1" stroke-width="1.51"/><path d="M97,926L180,1287L565,1063Z" fill="#78adb9" stroke="#78adb9" stroke-width="1.51"/><path d="M1276,1336L1733,1463L1588,945Z" fill="#1b76b3" stroke="#1b76b3" stroke-width="1.51"/><path d="M1588,945L2032,962L1608,668Z" fill="#2c86bc" stroke="#2c86bc" stroke-width="1.51"/><path d="M463,1449L1733,1463L1276,1336Z" fill="#2f7cb0" stroke="#2f7cb0" stroke-width="1.51"/><path d="M786,198L476,-117L533,233Z" fill="#a0d9bc" stroke="#a0d9bc" stroke-width="1.51"/><path d="M533,233L154,232L462,565Z" fill="#9ad7ba" stroke="#9ad7ba" stroke-width="1.51"/><path d="M1335,-153L868,-200L1190,358Z" fill="#8ec9c9" stroke="#8ec9c9" stroke-width="1.51"/><path d="M1697,303L1335,-153L1190,358Z" fill="#78b5bc" stroke="#78b5bc" stroke-width="1.51"/><path d="M476,-117L154,232L533,233Z" fill="#abdeb7" stroke="#abdeb7" stroke-width="1.51"/><path d="M1733,1463L1876,1328L1588,945Z" fill="#106cae" stroke="#106cae" stroke-width="1.51"/><path d="M868,-200L476,-117L786,198Z" fill="#a3dac3" stroke="#a3dac3" stroke-width="1.51"/><path d="M1876,1328L2032,962L1588,945Z" fill="#1972b0" stroke="#1972b0" stroke-width="1.51"/><path d="M1697,303L1707,-205L1335,-153Z" fill="#82b1bd" stroke="#82b1bd" stroke-width="1.51"/><path d="M2048,587L1697,303L1608,668Z" fill="#4c96bb" stroke="#4c96bb" stroke-width="1.51"/><path d="M2032,962L2048,587L1608,668Z" fill="#3385b9" stroke="#3385b9" stroke-width="1.51"/><path d="M154,232L-109,539L76,690Z" fill="#a2d9c5" stroke="#a2d9c5" stroke-width="1.51"/><path d="M76,690L-119,1017L97,926Z" fill="#8ec2c6" stroke="#8ec2c6" stroke-width="1.51"/><path d="M97,926L-119,1017L180,1287Z" fill="#85b3bf" stroke="#85b3bf" stroke-width="1.51"/><path d="M-109,539L-119,1017L76,690Z" fill="#97cdcd" stroke="#97cdcd" stroke-width="1.51"/><path d="M291,-478L236,-134L476,-117Z" fill="#c1e7c3" stroke="#c1e7c3" stroke-width="1.51"/><path d="M476,-117L236,-134L154,232Z" fill="#b8e4bc" stroke="#b8e4bc" stroke-width="1.51"/><path d="M154,232L-297,272L-109,539Z" fill="#b0e0c4" stroke="#b0e0c4" stroke-width="1.51"/><path d="M1710,-407L1215,-385L1335,-153Z" fill="#93bfcc" stroke="#93bfcc" stroke-width="1.51"/><path d="M1335,-153L1215,-385L868,-200Z" fill="#9acdd2" stroke="#9acdd2" stroke-width="1.51"/><path d="M868,-200L540,-537L476,-117Z" fill="#b2e1ca" stroke="#b2e1ca" stroke-width="1.51"/><path d="M1215,-385L925,-414L868,-200Z" fill="#a3d5d5" stroke="#a3d5d5" stroke-width="1.51"/><path d="M1994,-424L1865,-49L1921,255Z" fill="#7e9eb2" stroke="#7e9eb2" stroke-width="1.51"/><path d="M1921,255L1865,-49L1697,303Z" fill="#6f9fb1" stroke="#6f9fb1" stroke-width="1.51"/><path d="M1865,-49L1707,-205L1697,303Z" fill="#7ba6b8" stroke="#7ba6b8" stroke-width="1.51"/><path d="M-119,1017L-219,1364L180,1287Z" fill="#84aabc" stroke="#84aabc" stroke-width="1.51"/><path d="M180,1287L-219,1364L463,1449Z" fill="#789bae" stroke="#789bae" stroke-width="1.51"/><path d="M-512,1336L-219,1364L-119,1017Z" fill="#8aabc3" stroke="#8aabc3" stroke-width="1.51"/><path d="M-109,539L-597,684L-119,1017Z" fill="#9ccfd4" stroke="#9ccfd4" stroke-width="1.51"/><path d="M-135,-104L-297,272L154,232Z" fill="#c0e6c1" stroke="#c0e6c1" stroke-width="1.51"/><path d="M1994,-424L1710,-407L1707,-205Z" fill="#8baac4" stroke="#8baac4" stroke-width="1.51"/><path d="M1707,-205L1710,-407L1335,-153Z" fill="#8cb4c5" stroke="#8cb4c5" stroke-width="1.51"/><path d="M1215,-385L540,-537L925,-414Z" fill="#acdbd7" stroke="#acdbd7" stroke-width="1.51"/><path d="M925,-414L540,-537L868,-200Z" fill="#aeded2" stroke="#aeded2" stroke-width="1.51"/><path d="M236,-134L-135,-104L154,232Z" fill="#c2e7c0" stroke="#c2e7c0" stroke-width="1.51"/><path d="M1710,-407L540,-537L1215,-385Z" fill="#a1d0d8" stroke="#a1d0d8" stroke-width="1.51"/><path d="M-137,-563L-135,-104L236,-134Z" fill="#d3eecc" stroke="#d3eecc" stroke-width="1.51"/><path d="M540,-537L291,-478L476,-117Z" fill="#c0e7ca" stroke="#c0e7ca" stroke-width="1.51"/><path d="M1710,-407L1994,-424L540,-537Z" fill="#98c1d1" stroke="#98c1d1" stroke-width="1.51"/><path d="M1865,-49L1994,-424L1707,-205Z" fill="#85a5bc" stroke="#85a5bc" stroke-width="1.51"/><path d="M2048,587L1994,-424L1921,255Z" fill="#6e96a7" stroke="#6e96a7" stroke-width="1.51"/><path d="M-535,296L-597,684L-297,272Z" fill="#b6e2d2" stroke="#b6e2d2" stroke-width="1.51"/><path d="M-297,272L-597,684L-109,539Z" fill="#addcd0" stroke="#addcd0" stroke-width="1.51"/><path d="M-219,1364L-512,1336L463,1449Z" fill="#809db2" stroke="#809db2" stroke-width="1.51"/><path d="M-622,1019L-512,1336L-119,1017Z" fill="#91b5ca" stroke="#91b5ca" stroke-width="1.51"/><path d="M-623,-116L-535,296L-297,272Z" fill="#caebcc" stroke="#caebcc" stroke-width="1.51"/><path d="M-597,684L-622,1019L-119,1017Z" fill="#9ac5d3" stroke="#9ac5d3" stroke-width="1.51"/><path d="M540,-537L-137,-563L291,-478Z" fill="#d2eed1" stroke="#d2eed1" stroke-width="1.51"/><path d="M291,-478L-137,-563L236,-134Z" fill="#d1edce" stroke="#d1edce" stroke-width="1.51"/><path d="M-135,-104L-623,-116L-297,272Z" fill="#cfeccc" stroke="#cfeccc" stroke-width="1.51"/><path d="M-471,-446L-623,-116L-135,-104Z" fill="#ddf2d7" stroke="#ddf2d7" stroke-width="1.51"/><path d="M-535,296L-623,-116L-597,684Z" fill="#c3e8d1" stroke="#c3e8d1" stroke-width="1.51"/><path d="M-597,684L-623,-116L-622,1019Z" fill="#b4dfd9" stroke="#b4dfd9" stroke-width="1.51"/><path d="M-137,-563L-471,-446L-135,-104Z" fill="#def2d8" stroke="#def2d8" stroke-width="1.51"/></svg>